<svg width="200" height="200" viewBox="0 0 200 200" fill="none" xmlns="http://www.w3.org/2000/svg">
  <path d="M100 100C100 85 108 70 122 62C136 54 152 54 166 62C180 70 188 85 188 100C188 115 180 130 166 138C152 146 136 146 122 138C108 130 100 115 100 100M100 100C100 92 104 84 112 79C120 74 130 74 138 79C146 84 150 92 150 100C150 108 146 116 138 121C130 126 120 126 112 121C104 116 100 108 100 100M100 100C100 96 102 92 106 90C110 88 114 88 118 90C122 92 124 96 124 100C124 104 122 108 118 110C114 112 110 112 106 110C102 108 100 104 100 100" 
  stroke="#F59E0B" stroke-width="10" stroke-linecap="round"/>
</svg>
